<svg width="73" height="72" viewBox="0 0 73 72" fill="none" xmlns="http://www.w3.org/2000/svg">
<rect x="0.397461" width="72" height="72" rx="36" fill="#4E4CD3" fill-opacity="0.13"/>
<g clip-path="url(#clip0_665_2691)">
<path d="M50.1746 20.0564H48.0619V54.0001H50.1746C51.3365 54.0001 52.2872 53.0494 52.2872 51.8874V22.1691C52.2872 21.0071 51.3365 20.0564 50.1746 20.0564Z" fill="#4543DD"/>
<path d="M50.1746 22.1691C50.1746 21.0071 49.2239 20.0564 48.0619 20.0564H26.7943C25.6323 20.0564 24.6816 21.0071 24.6816 22.1691V51.8874C24.6816 53.0494 25.6323 54.0001 26.7943 54.0001H48.0619C49.2239 54.0001 50.1746 53.0494 50.1746 51.8874V46.6057L38.4845 38.0846L50.1746 24.2817V22.1691Z" fill="#6361FB"/>
<path d="M41.7239 37.4507L26.7943 46.6056H21.0374C20.7074 46.6056 20.4531 46.9058 20.5176 47.2293C20.8074 48.6808 22.0886 49.7746 23.6253 49.7746H44.8929L41.7239 37.4507Z" fill="#C7C7FF"/>
<path d="M41.7239 37.4507V46.6056C41.7239 48.3558 43.1427 49.7746 44.8929 49.7746H47.0056V37.4507H41.7239Z" fill="#C7C7FF"/>
<path d="M48.0619 22.1689L45.9492 49.5935C46.2885 49.7135 46.6457 49.7748 47.0056 49.7746C48.7558 49.7746 50.1746 48.3558 50.1746 46.6056V22.1689H48.0619Z" fill="#C7C7FF"/>
<path d="M40.574 22.1689C40.574 23.3358 39.6281 24.2816 38.4613 24.2816C37.2945 24.2816 36.3486 23.3358 36.3486 22.1689H26.7943V46.6056H43.8366C43.8366 47.9853 44.7185 49.1584 45.9492 49.5935C47.1799 49.1584 48.0619 47.9853 48.0619 46.6056V22.1689H40.574Z" fill="white"/>
<path d="M43.8366 24.2817H42.7803L43.8366 26.3944H45.9493C45.9493 25.2276 45.0034 24.2817 43.8366 24.2817Z" fill="#4543DD"/>
<path d="M42.7802 24.2817H42.7665L41.3974 20.9763C40.9261 19.8174 39.7894 19 38.4613 19C37.1335 19 35.997 19.817 35.5255 20.9755L34.1561 24.2817H33.1323C31.9655 24.2817 31.0197 25.2275 31.0197 26.3944H43.8366C43.8366 25.2275 43.3636 24.2817 42.7802 24.2817ZM38.4613 23.2254C37.8779 23.2254 37.4049 22.7524 37.4049 22.169C37.4049 21.5856 37.8779 21.1127 38.4613 21.1127C39.0447 21.1127 39.5176 21.5856 39.5176 22.169C39.5176 22.7524 39.0447 23.2254 38.4613 23.2254Z" fill="#C7C7FF"/>
<path d="M43.8365 40.7252H45.9492V42.8379H43.8365V40.7252ZM43.8365 35.4436H45.9492V37.5562H43.8365V35.4436ZM43.8365 30.1619H45.9492V32.2745H43.8365V30.1619Z" fill="#00987F"/>
<path d="M41.7238 42.3099H31.0196C30.8795 42.3099 30.7452 42.2543 30.6462 42.1552C30.5471 42.0562 30.4915 41.9218 30.4915 41.7817C30.4915 41.6417 30.5471 41.5073 30.6462 41.4083C30.7452 41.3092 30.8795 41.2536 31.0196 41.2536H41.7238C41.8639 41.2536 41.9983 41.3092 42.0973 41.4083C42.1964 41.5073 42.252 41.6417 42.252 41.7817C42.252 41.9218 42.1964 42.0562 42.0973 42.1552C41.9983 42.2543 41.8639 42.3099 41.7238 42.3099ZM41.7238 37.0282H31.0196C30.8795 37.0282 30.7452 36.9726 30.6462 36.8735C30.5471 36.7745 30.4915 36.6401 30.4915 36.5C30.4915 36.36 30.5471 36.2256 30.6462 36.1266C30.7452 36.0275 30.8795 35.9719 31.0196 35.9719H41.7238C41.8639 35.9719 41.9983 36.0275 42.0973 36.1266C42.1964 36.2256 42.252 36.36 42.252 36.5C42.252 36.6401 42.1964 36.7745 42.0973 36.8735C41.9983 36.9726 41.8639 37.0282 41.7238 37.0282ZM41.7238 31.7465H31.0196C30.8795 31.7465 30.7452 31.6909 30.6462 31.5918C30.5471 31.4928 30.4915 31.3584 30.4915 31.2184C30.4915 31.0783 30.5471 30.9439 30.6462 30.8449C30.7452 30.7458 30.8795 30.6902 31.0196 30.6902H41.7238C41.8639 30.6902 41.9983 30.7458 42.0973 30.8449C42.1964 30.9439 42.252 31.0783 42.252 31.2184C42.252 31.3584 42.1964 31.4928 42.0973 31.5918C41.9983 31.6909 41.8639 31.7465 41.7238 31.7465Z" fill="#00987F"/>
</g>
<defs>
<clipPath id="clip0_665_2691">
<rect width="35" height="35" fill="white" transform="translate(18.8975 19)"/>
</clipPath>
</defs>
</svg>
