<svg width="73" height="72" viewBox="0 0 73 72" fill="none" xmlns="http://www.w3.org/2000/svg">
<rect x="0.397461" width="72" height="72" rx="36" fill="#FF507D" fill-opacity="0.12"/>
<g clip-path="url(#clip0_665_2553)">
<path d="M44.3007 34.5242V34.9203C44.3007 35.4057 44.3789 35.8879 44.5324 36.3484L45.4297 39.0403H47.1232V32.8306H45.9942C45.0589 32.8306 44.3007 33.5888 44.3007 34.5242Z" fill="#5A4146"/>
<path d="M52.0301 35.6968L51.0749 39.0403L46.5587 35.0887C45.9351 35.0887 45.4297 34.5832 45.4297 33.9596C45.4297 33.0244 46.1879 32.2661 47.1232 32.2661H51.0748C51.6984 32.2661 52.2038 32.7716 52.2038 33.3951V34.4562C52.2039 34.8758 52.1454 35.2933 52.0301 35.6968Z" fill="#694B4B"/>
<path d="M46.5583 40.7341H49.9454V43.2326H46.5583V40.7341Z" fill="#E6AF78"/>
<path d="M46.5587 41.7708C47.0823 41.9836 47.6532 42.1033 48.2523 42.1033C48.8513 42.1033 49.4222 41.9836 49.9458 41.7708V40.7339H46.5587V41.7708Z" fill="#D29B6E"/>
<path d="M52.6691 42.8814L49.9457 42.1033L48.2523 43.2271L46.5588 42.1033L43.8355 42.8814C43.4816 42.9825 43.1703 43.1961 42.9487 43.4899C42.7271 43.7838 42.6072 44.1418 42.6072 44.5098V48.6371C42.6072 48.7868 42.6667 48.9304 42.7725 49.0362C42.8784 49.1421 43.022 49.2016 43.1717 49.2016H53.333C53.4827 49.2016 53.6263 49.1421 53.7321 49.0362C53.838 48.9304 53.8975 48.7868 53.8975 48.6371V44.5098C53.8975 44.1418 53.7776 43.7837 53.556 43.4899C53.3343 43.1961 53.023 42.9825 52.6691 42.8814Z" fill="#00987F"/>
<path d="M48.8168 49.2014H47.6877L47.97 43.2322H48.5345L48.8168 49.2014Z" fill="white"/>
<path d="M48.2523 41.2982C46.3817 41.2982 44.8652 39.7817 44.8652 37.9112V37.2498C44.8652 36.9504 44.9842 36.6632 45.1959 36.4514L46.2196 35.4277C46.4363 35.211 46.7327 35.0863 47.0391 35.096C48.8437 35.1529 50.441 35.5395 51.3141 36.3923C51.5279 36.601 51.6394 36.8931 51.6394 37.1918V37.9112C51.6394 39.7818 50.123 41.2982 48.2523 41.2982Z" fill="#F0C087"/>
<path d="M46.5588 37.3898C46.5588 36.7387 47.1056 36.221 47.7555 36.2625C48.8952 36.3352 50.5862 36.5256 51.6237 37.0247C51.5899 36.7865 51.4875 36.5617 51.3141 36.3923C50.441 35.5395 48.8437 35.1529 47.0391 35.096L47.0391 35.096C46.7327 35.0864 46.4363 35.211 46.2196 35.4277L45.196 36.4513C45.0911 36.5562 45.0079 36.6806 44.9512 36.8176C44.8944 36.9546 44.8652 37.1014 44.8652 37.2497V37.9111C44.8652 39.4557 45.9003 40.7563 47.3139 41.1636C46.8434 40.583 46.5588 39.8461 46.5588 39.0401L46.5588 37.3898Z" fill="#E6AF78"/>
<path d="M51.6394 46.1919C51.6394 45.7427 51.8178 45.312 52.1354 44.9944L53.5885 43.5413C53.7827 43.8189 53.8975 44.1531 53.8975 44.5098V48.6371C53.8975 48.7868 53.838 48.9304 53.7321 49.0363C53.6262 49.1421 53.4827 49.2016 53.3329 49.2016H51.6394V46.1919Z" fill="#00987F"/>
<path d="M48.5345 44.3612H47.97C47.8951 44.3612 47.8234 44.3314 47.7704 44.2785C47.7175 44.2256 47.6878 44.1538 47.6877 44.0789V43.2322H48.8168V44.0789C48.8168 44.116 48.8095 44.1527 48.7953 44.187C48.7811 44.2212 48.7603 44.2523 48.7341 44.2785C48.7079 44.3047 48.6768 44.3255 48.6425 44.3397C48.6083 44.3539 48.5716 44.3612 48.5345 44.3612Z" fill="#E3E3E3"/>
<path d="M48.2523 43.2272L47.2955 43.958C47.2567 43.9876 47.212 44.0085 47.1644 44.0193C47.1168 44.03 47.0674 44.0303 47.0197 44.0202C46.9719 44.0101 46.9269 43.9898 46.8878 43.9607C46.8486 43.9316 46.8162 43.8943 46.7928 43.8515L45.9344 42.284L46.2799 41.7571C46.2979 41.7296 46.3217 41.7064 46.3496 41.689C46.3775 41.6717 46.4088 41.6607 46.4414 41.6567C46.474 41.6527 46.5071 41.6559 46.5384 41.666C46.5696 41.6761 46.5983 41.693 46.6223 41.7153L48.2523 43.2272ZM48.2523 43.2272L49.2091 43.9581C49.2479 43.9877 49.2926 44.0086 49.3402 44.0193C49.3878 44.0301 49.4372 44.0304 49.485 44.0203C49.5327 44.0102 49.5777 43.9899 49.6168 43.9607C49.656 43.9316 49.6884 43.8944 49.7119 43.8516L50.5702 42.2841L50.2247 41.7571C50.2067 41.7297 50.1829 41.7064 50.155 41.6891C50.1271 41.6718 50.0958 41.6607 50.0632 41.6568C50.0306 41.6528 49.9975 41.656 49.9663 41.6661C49.935 41.6762 49.9063 41.693 49.8823 41.7154L48.2523 43.2272Z" fill="white"/>
<path d="M29.0025 41.0627C28.5201 39.7846 28.1375 37.5873 28.0549 36.4433C27.8976 34.2663 26.2571 32.4917 24.0394 32.4917C21.8216 32.4917 20.1811 34.2664 20.0239 36.4433C19.9412 37.5872 19.5586 39.7846 19.0762 41.0627C18.9699 41.3445 19.0926 41.6552 19.3701 41.781C19.887 42.0153 20.9892 42.4742 22.3184 42.653H25.7602C27.0833 42.4738 28.1932 42.0146 28.7086 41.781C28.9861 41.6552 29.1088 41.3445 29.0025 41.0627Z" fill="#5A4146"/>
<path d="M28.7086 41.781C28.986 41.6552 29.1088 41.3445 29.0024 41.0627C28.52 39.7846 28.1374 37.5873 28.0548 36.4433C27.8976 34.2663 26.257 32.4917 24.0394 32.4917L24.0226 32.4918C22.3209 32.4987 21.7196 34.8194 23.1845 35.6853C23.2724 35.7373 23.3288 35.7624 23.3288 35.7624L24.6119 42.653H25.7602C27.0833 42.4737 28.1931 42.0145 28.7086 41.781Z" fill="#694B4B"/>
<path d="M28.1226 43.7863L26.2957 42.873C26.1082 42.7792 25.9504 42.635 25.8402 42.4567C25.73 42.2783 25.6716 42.0727 25.6716 41.863L25.6717 40.1694H22.2845V41.8631C22.2845 42.0728 22.2261 42.2783 22.1159 42.4567C22.0057 42.635 21.848 42.7792 21.6604 42.8729L19.8336 43.7863C19.5523 43.927 19.3157 44.1432 19.1504 44.4107C18.985 44.6782 18.8975 44.9865 18.8975 45.301V48.637C18.8975 48.7868 18.9569 48.9303 19.0628 49.0362C19.1687 49.1421 19.3123 49.2016 19.462 49.2016H28.4942C28.6439 49.2016 28.7875 49.1421 28.8934 49.0362C28.9993 48.9303 29.0587 48.7868 29.0587 48.637V45.301C29.0587 44.9865 28.9712 44.6782 28.8058 44.4107C28.6405 44.1432 28.4039 43.927 28.1226 43.7863Z" fill="#E6AF78"/>
<path d="M23.9781 42.4275C24.586 42.4275 25.1682 42.3022 25.7019 42.0791C25.6879 42.008 25.6716 41.9372 25.6716 41.863L25.6717 40.1694H22.2845V41.8631C22.2845 41.9377 22.2682 42.0088 22.254 42.0802C22.7881 42.3021 23.3701 42.4275 23.9781 42.4275Z" fill="#D29B6E"/>
<path d="M28.1226 43.7863L26.8211 43.1356C26.2177 44.0674 25.171 44.6855 23.9781 44.6855C22.7853 44.6855 21.7385 44.0674 21.1351 43.1355L19.8336 43.7863C19.5523 43.9269 19.3158 44.1431 19.1504 44.4106C18.9851 44.6781 18.8975 44.9864 18.8975 45.3009V48.637C18.8975 48.7867 18.9569 48.9303 19.0628 49.0362C19.1687 49.142 19.3123 49.2015 19.462 49.2015H28.4942C28.6439 49.2015 28.7875 49.142 28.8934 49.0362C28.9993 48.9303 29.0587 48.7867 29.0587 48.637V45.301C29.0587 44.9865 28.9712 44.6782 28.8058 44.4107C28.6405 44.1431 28.4039 43.9269 28.1226 43.7863Z" fill="#00987F"/>
<path d="M23.9781 41.2984C22.256 41.2984 20.8341 40.0132 20.6191 38.3497C20.588 38.1087 20.7038 37.8724 20.9208 37.7629C21.1807 37.6318 21.5584 37.4107 21.92 37.0881C22.3227 36.7288 22.559 36.3499 22.6924 36.0717C22.8073 35.8322 23.0715 35.6967 23.3289 35.7624C25.3165 36.2693 26.6697 37.3034 27.1607 37.7256C27.2925 37.8389 27.3684 38.0061 27.3549 38.1794C27.2181 39.9247 25.7585 41.2984 23.9781 41.2984Z" fill="#F0C087"/>
<path d="M27.1606 37.7254C26.6697 37.3032 25.3164 36.2691 23.3288 35.7621C23.0714 35.6965 22.8072 35.8319 22.6923 36.0715C22.5913 36.2822 22.4243 36.5505 22.1765 36.8245L22.1762 36.8264C22.0992 36.9136 22.0174 37.001 21.92 37.0879C21.5584 37.4106 21.1807 37.6316 20.9208 37.7627C20.7038 37.8722 20.588 38.1086 20.6191 38.3496C20.8122 39.8436 21.9813 41.0328 23.4646 41.2596C22.7887 40.7998 22.2846 40.1675 22.2846 39.0402V38.2352C22.4128 38.1406 22.5419 38.0462 22.6717 37.9304C22.9838 37.652 23.2555 37.3314 23.479 36.9779C24.9995 37.4524 26.0304 38.2427 26.4212 38.5788C26.5282 38.6725 26.7937 38.9173 27.1043 39.2087C27.238 38.8871 27.3263 38.542 27.3547 38.1793C27.3683 38.0059 27.2924 37.8388 27.1606 37.7254Z" fill="#E6AF78"/>
<path d="M19.2416 44.2832C19.0241 44.5718 18.8975 44.9258 18.8975 45.3008V48.6369C18.8975 48.7866 18.9569 48.9302 19.0628 49.036C19.1687 49.1419 19.3123 49.2014 19.462 49.2014H21.1555V46.357C21.1555 46.014 20.9996 45.6896 20.7317 45.4753L19.2416 44.2832Z" fill="#00987F"/>
<path d="M44.5078 43.0159L39.7845 41.2983L36.3974 42.4274L33.0104 41.2984L28.2871 43.016C27.8515 43.1744 27.4752 43.463 27.2092 43.8427C26.9433 44.2223 26.8007 44.6746 26.8007 45.1381V48.6371C26.8007 48.7868 26.8601 48.9304 26.966 49.0363C27.0719 49.1422 27.2155 49.2016 27.3652 49.2016H45.4297C45.5794 49.2016 45.723 49.1422 45.8288 49.0363C45.9347 48.9304 45.9942 48.7868 45.9942 48.6371V45.1381C45.9942 44.6746 45.8516 44.2223 45.5857 43.8426C45.3197 43.4629 44.9434 43.1743 44.5078 43.0159Z" fill="#FF507D"/>
<path d="M35.8061 43.5564L35.2684 49.2014H37.5265L36.9888 43.5564H35.8061Z" fill="#707487"/>
<path d="M36.9901 44.3319H35.8047C35.7528 44.3319 35.7014 44.3217 35.6535 44.3018C35.6055 44.282 35.562 44.2528 35.5253 44.2161C35.4886 44.1794 35.4595 44.1359 35.4396 44.0879C35.4198 44.04 35.4095 43.9886 35.4095 43.9367V42.4272H37.3852V43.9367C37.3852 43.9886 37.375 44.04 37.3551 44.0879C37.3353 44.1359 37.3062 44.1794 37.2695 44.2161C37.2328 44.2528 37.1892 44.2819 37.1413 44.3018C37.0934 44.3217 37.042 44.3319 36.9901 44.3319Z" fill="#5B5D6E"/>
<path d="M45.3866 43.5994C45.7678 44.0085 45.9942 44.5534 45.9942 45.1379V48.6369C45.9942 48.7866 45.9348 48.9302 45.8289 49.0361C45.723 49.1419 45.5795 49.2014 45.4297 49.2014H42.6072V47.3141C42.6072 46.7153 42.8451 46.1409 43.2686 45.7175L45.3866 43.5994Z" fill="#D23C69"/>
<path d="M42.6071 29.6565V24.9274C42.6071 24.3038 42.1016 23.7983 41.4781 23.7983H34.7039C32.2097 23.7983 30.1877 25.8203 30.1877 28.3145V29.6565C30.1877 30.2632 30.2856 30.866 30.4775 31.4416L30.6654 32.0054C30.7229 32.178 30.7523 32.3589 30.7523 32.5409V32.8306H42.0426V32.5409C42.0426 32.3588 42.0719 32.178 42.1294 32.0054L42.3174 31.4416C42.5093 30.866 42.6071 30.2632 42.6071 29.6565Z" fill="#5A4146"/>
<path d="M33.0104 26.0917C33.0104 27.3582 34.0371 28.385 35.3037 28.385H35.6212L35.7745 32.8305H42.0426V32.5408C42.0426 32.3588 42.0719 32.178 42.1294 32.0053L42.3174 31.4415C42.5093 30.8659 42.6071 30.2631 42.6071 29.6564V24.9274C42.6071 24.3038 42.1016 23.7983 41.4781 23.7983H35.3037C34.0371 23.7983 33.0104 24.8251 33.0104 26.0917Z" fill="#694B4B"/>
<path d="M33.0103 37.3469H39.7847V42.4274H33.0103V37.3469Z" fill="#E6AF78"/>
<path d="M33.0104 39.2555C34.0077 39.8333 35.1622 40.1692 36.3975 40.1692C37.6328 40.1692 38.7874 39.8333 39.7846 39.2555V37.3467H33.0104L33.0104 39.2555Z" fill="#D29B6E"/>
<path d="M36.3974 42.4274L34.597 44.2278C34.355 44.4698 33.955 44.4425 33.7482 44.1699L31.8813 41.7101L32.3696 40.6811C32.5137 40.3774 32.8896 40.2661 33.1757 40.4425L36.3974 42.4274ZM36.3974 42.4274L38.1979 44.2278C38.4399 44.4698 38.8399 44.4425 39.0467 44.1699L40.9135 41.7101L40.4252 40.6811C40.2811 40.3774 39.9053 40.2661 39.6192 40.4425L36.3974 42.4274Z" fill="#D23C69"/>
<path d="M36.3975 39.0402C33.2798 39.0402 30.7523 36.5127 30.7523 33.395V32.7336C30.7523 32.4342 30.8713 32.147 31.083 31.9352L31.5506 31.4676C31.6555 31.3628 31.7386 31.2383 31.7954 31.1013C31.8521 30.9643 31.8813 30.8175 31.8813 30.6692V29.316C31.8813 29.0546 32.0568 28.8275 32.3112 28.7674C33.6463 28.4521 37.801 27.7051 40.6284 29.7846C40.812 29.9196 40.9135 30.1414 40.9135 30.3693V30.6692C40.9135 30.9686 41.0325 31.2558 41.2442 31.4676L41.7118 31.9352C41.8167 32.0401 41.8998 32.1646 41.9566 32.3015C42.0133 32.4385 42.0425 32.5853 42.0425 32.7336V33.395C42.0427 36.5127 39.5152 39.0402 36.3975 39.0402Z" fill="#F0C087"/>
<path d="M40.6285 29.7849C38.6399 28.3223 35.9984 28.259 34.1395 28.4592C33.3553 28.5437 32.7074 28.6742 32.3113 28.7677C32.057 28.8278 31.8814 29.0549 31.8814 29.3163V30.6694C31.8814 30.9689 31.7625 31.2561 31.5507 31.4679L31.083 31.9355C30.9782 32.0404 30.895 32.1648 30.8383 32.3018C30.7815 32.4388 30.7523 32.5857 30.7523 32.734V33.3953C30.7523 36.2817 32.92 38.6579 35.7153 38.9953C34.7413 37.9809 34.1394 36.6062 34.1394 35.0888V30.9626C34.1394 30.3905 34.5648 29.9124 35.1324 29.8412C36.4871 29.6713 38.9684 29.5692 40.9135 30.6696V30.3696C40.9137 30.1417 40.8119 29.9198 40.6285 29.7849Z" fill="#E6AF78"/>
<path d="M27.4083 43.5994C27.0271 44.0085 26.8007 44.5534 26.8007 45.1379V48.6369C26.8007 48.7866 26.8601 48.9302 26.966 49.0361C27.0719 49.1419 27.2155 49.2014 27.3652 49.2014H30.1877V47.3141C30.1877 46.7153 29.9498 46.1409 29.5264 45.7175L27.4083 43.5994Z" fill="#D23C69"/>
</g>
<defs>
<clipPath id="clip0_665_2553">
<rect width="35" height="35" fill="white" transform="translate(18.8975 19)"/>
</clipPath>
</defs>
</svg>
