<svg width="73" height="72" viewBox="0 0 73 72" fill="none" xmlns="http://www.w3.org/2000/svg">
<rect x="0.397461" width="72" height="72" rx="36" fill="#EA9453" fill-opacity="0.18"/>
<g clip-path="url(#clip0_665_2752)">
<path d="M45.1475 49.9165V24.2498C45.1475 22.9665 44.0975 21.9165 42.8142 21.9165H21.8142C20.5308 21.9165 19.4808 22.9665 19.4808 24.2498V49.9165C19.4808 51.1998 20.5308 52.2498 21.8142 52.2498H42.8142C43.433 52.2498 44.0265 52.004 44.4641 51.5664C44.9017 51.1288 45.1475 50.5353 45.1475 49.9165Z" fill="#AD6D40"/>
<path d="M42.2309 24.25H22.3975C22.0754 24.25 21.8142 24.5112 21.8142 24.8333V49.3333C21.8142 49.6555 22.0754 49.9167 22.3975 49.9167H42.2309C42.553 49.9167 42.8142 49.6555 42.8142 49.3333V24.8333C42.8142 24.5112 42.553 24.25 42.2309 24.25Z" fill="#F8F8FF"/>
<path d="M36.9808 21.9166V23.6666C36.9808 24.3083 36.4558 24.8333 35.8141 24.8333H28.8141C28.1725 24.8333 27.6475 24.3083 27.6475 23.6666V21.9166C27.6475 21.5958 27.91 21.3333 28.2308 21.3333H30.0566C30.3133 20.3241 31.2291 19.5833 32.3141 19.5833C33.3991 19.5833 34.315 20.3241 34.5716 21.3333H36.3975C36.7183 21.3333 36.9808 21.5958 36.9808 21.9166Z" fill="#CBCBF4"/>
<path d="M53.3142 36.4766V52.2499C53.3142 52.8916 52.7892 53.4166 52.1475 53.4166H34.6475C34.0058 53.4166 33.4808 52.8916 33.4808 52.2499V36.4766H53.3142Z" fill="#EA9453"/>
<path d="M53.1363 36.0548L49.6748 32.5933C49.6189 32.5373 49.5525 32.4928 49.4794 32.4625C49.4064 32.4322 49.3281 32.4165 49.2489 32.4165H37.5467C37.4676 32.4165 37.3892 32.4321 37.3161 32.4624C37.2431 32.4927 37.1767 32.5372 37.1209 32.5933L33.6594 36.0548C33.2796 36.4345 33.5485 37.0832 34.0852 37.0832H52.711C53.2477 37.0832 53.516 36.4345 53.1363 36.0548Z" fill="#FCB36B"/>
<path d="M46.3142 37.0833V41.1667C46.3142 41.3214 46.2527 41.4698 46.1433 41.5791C46.0339 41.6885 45.8855 41.75 45.7308 41.75H41.0642C40.9095 41.75 40.7611 41.6885 40.6517 41.5791C40.5423 41.4698 40.4808 41.3214 40.4808 41.1667V37.0833L41.0642 36.5H45.7308L46.3142 37.0833Z" fill="#723535"/>
<path d="M39.3142 48.1665H36.3975C36.0754 48.1665 35.8142 48.4277 35.8142 48.7498V50.4998C35.8142 50.822 36.0754 51.0832 36.3975 51.0832H39.3142C39.6364 51.0832 39.8975 50.822 39.8975 50.4998V48.7498C39.8975 48.4277 39.6364 48.1665 39.3142 48.1665Z" fill="white"/>
<path d="M46.3142 37.0832L44.5642 32.4165H42.2308L40.4808 37.0832H46.3142Z" fill="#914747"/>
<path d="M47.3099 47.7543C47.2558 47.7001 47.1915 47.6571 47.1207 47.6277C47.0499 47.5984 46.9741 47.5833 46.8975 47.5833C46.8209 47.5833 46.745 47.5984 46.6742 47.6277C46.6035 47.6571 46.5392 47.7001 46.4851 47.7543L45.9017 48.3376C45.8199 48.4191 45.7641 48.523 45.7414 48.6363C45.7188 48.7495 45.7303 48.8669 45.7745 48.9736C45.8186 49.0803 45.8935 49.1715 45.9896 49.2355C46.0857 49.2996 46.1987 49.3336 46.3141 49.3334V51.0834C46.3141 51.2381 46.3756 51.3865 46.485 51.4958C46.5944 51.6052 46.7428 51.6667 46.8975 51.6667C47.0522 51.6667 47.2006 51.6052 47.31 51.4958C47.4193 51.3865 47.4808 51.2381 47.4808 51.0834V49.3334C47.5963 49.3336 47.7092 49.2996 47.8053 49.2355C47.9014 49.1715 47.9763 49.0803 48.0205 48.9736C48.0647 48.8669 48.0762 48.7495 48.0535 48.6363C48.0309 48.523 47.9751 48.4191 47.8932 48.3376L47.3099 47.7543ZM51.3932 48.3376L50.8099 47.7543C50.7558 47.7001 50.6915 47.6571 50.6207 47.6277C50.5499 47.5984 50.4741 47.5833 50.3975 47.5833C50.3209 47.5833 50.245 47.5984 50.1742 47.6277C50.1035 47.6571 50.0392 47.7001 49.9851 47.7543L49.4017 48.3376C49.3199 48.4191 49.2641 48.523 49.2414 48.6363C49.2188 48.7495 49.2303 48.8669 49.2745 48.9736C49.3186 49.0803 49.3935 49.1715 49.4896 49.2355C49.5857 49.2996 49.6987 49.3336 49.8141 49.3334V51.0834C49.8141 51.2381 49.8756 51.3865 49.985 51.4958C50.0944 51.6052 50.2428 51.6667 50.3975 51.6667C50.5522 51.6667 50.7006 51.6052 50.81 51.4958C50.9193 51.3865 50.9808 51.2381 50.9808 51.0834V49.3334C51.0963 49.3336 51.2092 49.2996 51.3053 49.2355C51.4014 49.1715 51.4763 49.0803 51.5205 48.9736C51.5647 48.8669 51.5762 48.7495 51.5535 48.6363C51.5309 48.523 51.4751 48.4191 51.3932 48.3376Z" fill="#20295E"/>
<path d="M27.0641 32.4166C26.9875 32.4167 26.9116 32.4017 26.8409 32.3723C26.7701 32.343 26.7058 32.3 26.6517 32.2457L25.485 31.0791C25.3757 30.9697 25.3142 30.8213 25.3142 30.6666C25.3142 30.512 25.3757 30.3636 25.485 30.2542C25.5944 30.1448 25.7428 30.0834 25.8975 30.0834C26.0521 30.0834 26.2005 30.1448 26.3099 30.2542L26.9737 30.9181L28.9121 28.0101C28.9546 27.9464 29.0093 27.8917 29.073 27.8491C29.1366 27.8064 29.2081 27.7768 29.2832 27.7618C29.3583 27.7468 29.4357 27.7467 29.5108 27.7616C29.586 27.7765 29.6575 27.806 29.7212 27.8486C29.7849 27.8911 29.8397 27.9457 29.8823 28.0094C29.9249 28.0731 29.9546 28.1445 29.9696 28.2196C29.9846 28.2948 29.9846 28.3721 29.9697 28.4473C29.9548 28.5224 29.9253 28.5939 29.8828 28.6576L27.5495 32.1576C27.4962 32.2375 27.424 32.303 27.3393 32.3483C27.2547 32.3936 27.1601 32.4167 27.0641 32.4166ZM27.0641 39.4166C26.9875 39.4167 26.9116 39.4017 26.8409 39.3723C26.7701 39.343 26.7058 39.3 26.6517 39.2457L25.485 38.0791C25.4309 38.0249 25.3879 37.9606 25.3586 37.8898C25.3293 37.8191 25.3142 37.7432 25.3142 37.6666C25.3142 37.5901 25.3293 37.5142 25.3586 37.4434C25.3879 37.3727 25.4309 37.3084 25.485 37.2542C25.5392 37.2001 25.6035 37.1571 25.6743 37.1278C25.745 37.0985 25.8209 37.0834 25.8975 37.0834C25.974 37.0834 26.0499 37.0985 26.1207 37.1278C26.1914 37.1571 26.2557 37.2001 26.3099 37.2542L26.9737 37.9181L28.9121 35.0101C28.998 34.8814 29.1315 34.7921 29.2832 34.7618C29.4349 34.7315 29.5925 34.7627 29.7212 34.8486C29.8499 34.9344 29.9393 35.0679 29.9696 35.2196C29.9999 35.3714 29.9687 35.5289 29.8828 35.6576L27.5495 39.1576C27.4962 39.2375 27.424 39.303 27.3393 39.3483C27.2547 39.3936 27.1601 39.4167 27.0641 39.4166ZM27.0641 46.4166C26.9875 46.4167 26.9116 46.4017 26.8409 46.3723C26.7701 46.343 26.7058 46.3 26.6517 46.2457L25.485 45.0791C25.4309 45.0249 25.3879 44.9606 25.3586 44.8898C25.3293 44.8191 25.3142 44.7432 25.3142 44.6666C25.3142 44.5901 25.3293 44.5142 25.3586 44.4434C25.3879 44.3727 25.4309 44.3084 25.485 44.2542C25.5392 44.2001 25.6035 44.1571 25.6743 44.1278C25.745 44.0985 25.8209 44.0834 25.8975 44.0834C25.974 44.0834 26.0499 44.0985 26.1207 44.1278C26.1914 44.1571 26.2557 44.2001 26.3099 44.2542L26.9737 44.9181L28.9121 42.0101C28.9546 41.9464 29.0093 41.8917 29.073 41.8491C29.1366 41.8064 29.2081 41.7768 29.2832 41.7618C29.3583 41.7468 29.4357 41.7467 29.5108 41.7616C29.586 41.7765 29.6575 41.806 29.7212 41.8486C29.7849 41.8911 29.8397 41.9457 29.8823 42.0094C29.9249 42.0731 29.9546 42.1445 29.9696 42.2196C29.9846 42.2948 29.9846 42.3721 29.9697 42.4473C29.9548 42.5224 29.9253 42.5939 29.8828 42.6576L27.5495 46.1576C27.4962 46.2375 27.424 46.303 27.3393 46.3483C27.2547 46.3936 27.1601 46.4167 27.0641 46.4166Z" fill="#00987F"/>
</g>
<defs>
<clipPath id="clip0_665_2752">
<rect width="35" height="35" fill="white" transform="translate(18.8975 19)"/>
</clipPath>
</defs>
</svg>
