<svg width="32" height="32" viewBox="0 0 32 32" fill="none" xmlns="http://www.w3.org/2000/svg">
<g opacity="0.25" clip-path="url(#clip0_4_605)">
<path d="M31.0916 7.63272C31.0315 7.63065 29.7956 7.58892 27.9814 7.62901V3.90936C27.9814 3.36103 27.5132 2.92614 26.9619 2.97145C23.3445 3.27344 18.7422 4.87187 16 7.78732C13.2578 4.87187 8.6555 3.27344 5.03812 2.97145C4.48784 2.92665 4.01864 3.35959 4.01864 3.90936V7.7296C2.98786 7.69069 2.01286 7.66327 0.969098 7.63259C0.442667 7.61596 0 8.04 0 8.57333V25.7134C0 26.2087 0.383812 26.6193 0.877992 26.6525C4.62187 26.9044 10.8932 26.9328 15.6308 28.9534C16.053 29.1338 16.4321 28.9266 16.3693 28.9534C21.1068 26.9329 27.377 26.9046 31.1221 26.6525C31.6163 26.6193 32.0001 26.2087 32.0001 25.7134V8.57333C32 8.06629 31.5984 7.65041 31.0916 7.63272ZM26.099 4.96793V21.0989C23.3849 21.7061 19.9453 23.0016 16.9412 25.7487C16.9412 24.9201 16.9412 10.0188 16.9412 9.57066C19.0005 7.00125 22.9005 5.45258 26.099 4.96793ZM5.90099 4.96793C9.09955 5.45258 12.9995 7.00125 15.0588 9.57066V25.7487C12.0547 23.0016 8.61509 21.7061 5.90099 21.0989V4.96793ZM1.88235 24.8278V9.54261C2.5563 9.56257 3.27711 9.58509 4.01864 9.61339V21.8661C4.01864 22.3189 4.34115 22.7075 4.7862 22.7911C6.93528 23.1944 9.72995 24.07 12.3346 25.9552C8.61854 25.1218 4.72885 24.9878 1.88235 24.8278ZM30.1176 24.8278C27.2758 24.9876 23.3829 25.1214 19.6653 25.9552C22.27 24.07 25.0647 23.1944 27.2137 22.7911C27.6588 22.7075 27.9813 22.3189 27.9813 21.8661V9.512C28.8476 9.49261 29.5854 9.49236 30.1176 9.49719V24.8278H30.1176Z" fill="black"/>
<path d="M12.6197 11.7403C11.8908 11.2324 10.634 10.609 9.29286 10.3824C8.78055 10.2954 8.29465 10.6411 8.208 11.1536C8.12141 11.6661 8.4667 12.1518 8.97926 12.2384C10.0147 12.4134 11.0079 12.9114 11.5437 13.2847C11.9701 13.5818 12.5567 13.4771 12.854 13.0505C13.1511 12.624 13.0462 12.0374 12.6197 11.7403Z" fill="black"/>
<path d="M12.5255 17.0421C11.8548 16.6326 10.543 15.9139 9.29287 15.7026C8.78055 15.6158 8.29465 15.9613 8.208 16.4738C8.12141 16.9864 8.4667 17.472 8.97927 17.5586C9.95313 17.7232 11.0975 18.3756 11.5443 18.6486C11.9885 18.9197 12.5675 18.779 12.8382 18.3359C13.1091 17.8923 12.9691 17.3131 12.5255 17.0421Z" fill="black"/>
<path d="M20.4581 13.2838C20.994 12.9104 21.9871 12.4124 23.0226 12.2374C23.5351 12.1508 23.8804 11.6651 23.7939 11.1526C23.7073 10.6401 23.2214 10.2943 22.709 10.3814C21.3678 10.608 20.1111 11.2314 19.3821 11.7393C18.9556 12.0364 18.8508 12.6231 19.1479 13.0495C19.4452 13.4763 20.032 13.5807 20.4581 13.2838Z" fill="black"/>
<path d="M22.7102 15.7025C21.4601 15.9137 20.1483 16.6324 19.4776 17.042C19.034 17.3129 18.894 17.8922 19.1649 18.3358C19.4359 18.7793 20.0151 18.9193 20.4588 18.6484C20.9056 18.3755 22.05 17.7231 23.0238 17.5585C23.5363 17.4719 23.8816 16.9862 23.7951 16.4737C23.7085 15.9611 23.2226 15.6153 22.7102 15.7025Z" fill="black"/>
</g>
<defs>
<clipPath id="clip0_4_605">
<rect width="32" height="32" fill="white"/>
</clipPath>
</defs>
</svg>
